<svg preserveAspectRatio="none" overflow="visible" style="display: block;" width="20" height="20" viewBox="0 0 20 20" fill="none" xmlns="http://www.w3.org/2000/svg">
<g id="edit_document">
<mask id="mask0_0_23" style="mask-type:alpha" maskUnits="userSpaceOnUse" x="0" y="0" width="20" height="20">
<rect id="Bounding box" width="20" height="20" fill="#D9D9D9"/>
</mask>
<g mask="url(#mask0_0_23)">
<path id="edit_document_2" d="M11.6667 18.3333V15.7708L16.2708 11.1875C16.3958 11.0625 16.5347 10.9722 16.6875 10.9167C16.8403 10.8611 16.9931 10.8333 17.1458 10.8333C17.3125 10.8333 17.4722 10.8646 17.625 10.9271C17.7778 10.9896 17.9167 11.0833 18.0417 11.2083L18.8125 11.9792C18.9236 12.1042 19.0104 12.2431 19.0729 12.3958C19.1354 12.5486 19.1667 12.7014 19.1667 12.8542C19.1667 13.0069 19.1389 13.1632 19.0833 13.3229C19.0278 13.4826 18.9375 13.625 18.8125 13.75L14.2292 18.3333H11.6667ZM12.9167 17.0833H13.7083L16.2292 14.5417L15.8542 14.1458L15.4583 13.7708L12.9167 16.2917V17.0833ZM5 18.3333C4.54167 18.3333 4.14931 18.1701 3.82292 17.8437C3.49653 17.5174 3.33333 17.125 3.33333 16.6667V3.33333C3.33333 2.875 3.49653 2.48264 3.82292 2.15625C4.14931 1.82986 4.54167 1.66667 5 1.66667H11.6667L16.6667 6.66667V9.16667H15V7.5H10.8333V3.33333H5V16.6667H10V18.3333H5ZM15.8542 14.1458L15.4583 13.7708L16.2292 14.5417L15.8542 14.1458Z" fill="#626262"/>
</g>
</g>
</svg>
